<svg fill="none" height="24" viewBox="0 0 24 24" width="24" xmlns="http://www.w3.org/2000/svg" xmlns:xlink="http://www.w3.org/1999/xlink"><clipPath id="a"><path d="m0 0h24v24h-24z"/></clipPath><g clip-path="url(#a)"><path d="m23.0383 11.9999c0 6.094-4.944 11.038-11.0381 11.038-6.09402 0-11.038042-4.944-11.038042-11.038 0-6.09408 4.944022-11.038108 11.038042-11.038108 6.0941 0 11.0381 4.944028 11.0381 11.038108z" fill="#ffcf00"/><g fill="#000"><path d="m12 23.0381c-6.09942 0-11.038065-4.9441-11.038065-11.0381 0-6.09404 4.938645-11.038065 11.038065-11.038065 6.0994 0 11.0381 4.938645 11.0381 11.038065 0 6.0994-4.9441 11.0381-11.0381 11.0381zm0-23.0381c-6.62606 0-12 5.37394-12 12 0 6.6261 5.37394 12 12 12 6.6261 0 12-5.3686 12-12 0-6.63144-5.3739-12-12-12z"/><path d="m7.21165 11.4519c-.85983-.2149-1.61219.7846-2.03135 1.5477.14509-1.0372 1.41872-2.7407 2.03135-1.5477z"/><path d="m5.32568 11.4626c.2902-.9888.96731-1.3488 1.33274-1.0586-.4944.1612-.85446.446-1.33274 1.0586z"/><path d="m7.51815 13.0479c.44066-.3762.39767-.9297-.29019-1.107-.50515-.129-1.60144.7846-1.71429 1.8002.43529-.5642 1.69817-1.596 2.00448-.6932z"/><path d="m14.4073 15.6758c.0753-1.3005-1.1822-1.9077-1.4241-3.2351-.2364-1.3327 1.9723-3.46079.575-5.63723 2.6333 2.1227.5697 3.37483 1.897 5.14283-.5105-.1504-1.021-.6126-1.1768-.8544-.7416.9726 1.8163 2.3108.1289 4.5839z"/><path d="m10.1674 5.202c.3117 0 .8437.22033.6287.46753-.7308.68249-1.71426.40842-2.49886 1.09091.31706-.85446 1.75186-.97806 1.87016-1.55844z"/><path d="m9.26993 8.07168c-.09673 0-.18271-.13435-.20958-.30632.1236.32244.44066.1666.25794-.29019.11286 0 .2902.01075.61801 0-.34394.17734-.49978.60726-.67175.60188m3.26735-1.90775c.3009-.34393.0215-.81146-1.2306-.9673 1.3058.63949-.7954.77384-.8652 1.87013-.68789.27407-1.23603-.17734-1.57459.13434-.32781.29557-.70936.09674-.60188-.25257-.39767.20421-.31706.7416.06986.9082.07523.03761.1451.11285.08598.16659-.42454.39767-.618.7416-.17734 1.13927.24183-.44604.36006-.60188.63413-.82758.25257.17733.69323.05911 1.29514-.59651.0268-.03225.0645-.0215.0537.02149-.47289 1.63368-1.6874 1.90238-2.07432 1.82177.23645.3493 1.77877.56967 1.96682-.11823.4407-1.55307 1.94-2.23018.6449-2.20331.3493-.40842 1.5262-.79535 1.7788-1.08554"/><path d="m13.1878 5.33098c.6288.40305.9136.67174 1.3274 1.16077.0806-.66637-.301-1.98298-.8545-2.28392-.2418-.13435-.5911.78459-.4729 1.12315z"/><path d="m3.19739 10.6511c.40304-1.05864 1.38648-2.32152 2.97716-3.2727.36543-.94582.2472-1.59606 4.10565-3.09002.0968-.57501.0753-1.25212.2419-1.25212s.7308.2472 1.1392.83833c.172-.01612.3171-.03762.4246-.04837.0645-.33318.3009-1.24675.6019-1.71966.2794-.43528.8168-.47828 1.5047.09136.7201.59113 1.2252.83296 2.2087 2.09046.8329.37618 2.1334.85446 3.2619 2.23019-.489-.32244-1.0425-.44067-1.4993-.4944.9189.80609 1.5262 2.13345 1.064 4.07883-.1773-1.81641-1.5154-2.57413-2.3322-3.15452.446 1.53157-1.4779 1.00493-2.0636-.1451.1934.05912.3923.05374.5105-.02686-.0591-2.34304-1.1662-3.68653-1.6552-4.10032-.6287-.5159-.9673.73623-1.1769 1.68204-.0698.31707-.3385.5374-.6825.52665.0753-.11285.1613-.41917.1774-.51052-.9727.07523-2.06899.64487-2.74074.95118-1.70353.76848-2.13345 1.1554-2.50962 2.45589-1.35424.56964-2.91268 2.13346-3.56292 2.86966"/><path d="m11.7151 10.3286c.1881.2149 1.3166 1.9131.0108 4.0788.36-1.5907-.6342-4.6377-1.73045-3.0793.74165.3225.98345.9297.78455 1.5155-.3009-.5643-1.08012-1.1769-1.83784-.9243-.38155.1289-.8867.1289-1.26288-.4246-.4944-.7254.33319-1.61752-1.08016-1.54229 1.70354-.8652 1.21451.81689 2.03672 1.01569.95656.2311 1.06942-.3601 1.39726-.7416.2633-.3117.7523-.55353 1.2682-.215.2418-.74695-.1128-1.92384.5858-2.54722.2579-.2257 1.0748-.20421 1.4993.13972-.6019-.01074-1.3112.70936-1.6659 2.7353"/><path d="m7.81931 17.1966c-.07523-.0699-.30631-.3601-.28481-.6771.28481.1827.67174.274.67174.274s-.18272.3117-.3923.4085m1.71429-1.8702c.17196.0162.31168.1559.46753.043.15044-.1128 0-.5696-.1236-.7147.14514-.0269.73624.0269.70934.2472-.0698.5535-.4191.7362-1.26823 1.1446.14509-.1343.1236-.4299.21496-.7254m-3.39096-.4622c.07524-.172.39767-.3977.54277-.4084-.05374.489.1236 1.15.1236 1.15s-.65562-.4138-.66099-.7416m-2.1657-2.1657c-.31169-.2203-.79534-.7201-.84908-.9028.05911-.0699.31706-.3547.65024-.4461.24183-.0644.39767.0699.36543.1451-.03224.0753-.2472.0753-.31169.258-.09673.2848.21496.3654.27407.489.03762.0806.11823.2848-.12897.4514m16.44965-5.34166c.8705 3.02556.6233 5.94356-.2687 7.67936.1128-1.0909-.8437-2.687-.4568-4.5517-1.8164 1.7626 1.021 6.0886-3.0954 8.9207.6126-.9888.8974-3.4501.6771-4.3421.2203.0859.4407.36.5804.5911.3439-1.1285.3869-2.73-.2579-4.3475.2203.0269.6824.2311.8974.4353.1021-2.50428-1.7304-2.69237-2.0743-3.37486 0 .73086.8544 1.34886 1.0103 2.30006-.5965-.2848-1.0318-.3171-1.3435-.2848.4621.3332 1.4939 2.3269 1.1876 3.9283-.446-.3762-.8544-.5481-1.3005-.5804.5482.8276.7685 2.9933.086 3.9767-.0215-.2203-.1021-.8705-.3547-1.1392-.3224 1.2091-1.2682 1.725-1.9185 1.8701.8061-.8437.6503-2.3323-.532-2.7407-1.064-.3654-2.4183.36-2.961 2.8912-.7685.2257-3.06854-.2687-1.69282-1.7519.84371.2794 2.97712-1.1501 2.83202-2.1496-.2042-1.3972-1.47241-1.8863-2.48271-1.8755-1.24675.0161-2.08509 1.1769-3.10614 1.682-.84908-.1289-1.13927-.2472-1.57456-1.3811-.05374-.6932.68786-1.1822.67174-1.897-.60188.129-.75235-.7846-1.93461.1612-.09136-.1719.06448-.575.06448-.575-.43529.3923-.5159.8599-.52664.9566.21495.4192.51052.8007 1.0909 1.1823.69324 1.854 1.40798 2.0636 2.14421 2.1334.1236.1774.67174.8276 1.36498.9351-.11823-.3493-.13435-1.3328-.06449-1.58 1.51008-1.51 2.62785-.5911 2.77295-.188-1.33811.274-.3923 3.1437-2.61173 1.8647-.09136.2902.03224 1.0211.31706 1.4456.2257 1.9615 2.69776 1.4832 3.45546 1.8271-.0806-1.9077.9727-3.2996 1.8809-3.1867.9082.1128 1.1446 1.5961-.4085 2.9986.3816.2043 2.0421-.0752 2.8858-.6878.0807.4836-.5427 1.9185-1.3219 2.9234 6.5185-1.4939 9.4312-8.5607 6.3788-14.08508"/></g></g></svg>