<svg fill="none" height="24" viewBox="0 0 24 24" width="24" xmlns="http://www.w3.org/2000/svg" xmlns:xlink="http://www.w3.org/1999/xlink"><clipPath id="a"><path d="m0 0h24v24h-24z"/></clipPath><g clip-path="url(#a)" fill="#98272b"><path d="m0 6.15616v6.14794l.312329.0575c1.052051.1726 2.843831-.2137 3.410961-.7315.12329-.115.22192-.2383.22192-.263 0-.0329-.09863-.337-.2137-.6739-.67398-1.94799.5589-3.62471 2.88493-3.91238.86301-.10685 2.00548.23836 2.71233.82192l.3452.27945.04932-1.08493c.05753-1.31507.32051-2.41644.77261-3.27945.5507-1.04384 1.7753-2.16987 2.3014-2.10411.3287.03288.2794.28767-.222 1.10137-.5178.86301-.9452 1.70959-1.0602 2.12877-.0493.18082-.0904.73972-.0904 1.24109 0 1.19178.2465 2.1863.863 3.46849.2465.51781.452.95338.452.96988 0 .0082-.0986.0329-.2219.0493-.1726.0164-.2712.1151-.4274.4356-.189.3617-.263.4274-.6082.5343-.8466.2712-1.126.9123-.8466 1.9479.1562.5836.3863.937 1.0767 1.6685.8713.9123.9041.9781.748 1.4219-.2055.6165-.1151.8137 1.2164 2.5562.9945 1.3068 1.5123 2.2685 1.5863 2.9342.0575.5918-.1315 1.2576-.5096 1.7507l-.2876.3781h4.7671 4.7671v-12-12h-12-12zm18.0658-3.66575c.2219.23836.7726 1.43014.9698 2.11233.1151.40274.1562.79726.148 1.60274 0 .95342-.0247 1.14246-.2302 1.72603-.337.96986-.8794 1.9726-1.4794 2.72059l-.5343.6657.1973.6247c.337 1.0438.337 1.2246.0822 1.7589-.1315.263-.5096.7561-.8548 1.1342-.3452.3617-.674.7151-.7315.7891-.0576.0739-.1973.6657-.3041 1.315-.1069.6493-.263 1.3398-.337 1.5288-.1151.3041-.1726.3534-.3699.3534-.1972 0-.2877-.074-.4849-.3945-.1315-.2137-.2466-.4521-.2466-.5342 0-.2877.1644-.4685.411-.4685.189 0 .2548-.0411.2794-.1809.3452-1.8328.5918-2.6054.937-2.9671.5507-.5835.6411-1.1671.3123-1.9726-.2712-.6493-.6164-1.0767-1.4219-1.7425l-.6904-.56708.3945-.10685c1.7261-.48493 2.9343-1.64383 3.3617-3.23014.1972-.73972.1972-2.19452 0-3.18904-.1233-.59178-.1315-.8137-.0658-.96986.1233-.25479.4192-.26301.6576-.00822zm-5.1453 10.43009c.3617.1069.6411.4028.6411.6822 0 .2137-.4931 1.2-.5753 1.1507-.0329-.0164-.0658-.2466-.074-.5013-.0164-.5589-.0822-.6576-.4602-.7233-.2795-.0576-.3206-.1151-.2959-.3781.0411-.3617.189-.4028.7643-.2302z"/><path d="m9.0903 13.6357c-.03288.0493-.03288.263 0 .4849.03287.2466 0 .6411-.0822 1.0521-.52602 2.6054-.45205 3.0575.77261 4.7013.64929.8795.81369 1.3562.66579 1.948-.1644.6575-.1151 1.1013.189 1.6438l.2712.4932.4603.0246c.263.0165.4685 0 .4685-.0246 0-.0247-.0658-.1809-.1479-.3535-.3288-.6657-.3863-1.0274-.337-2.3671.0246-.8466-.148-1.2246-.9288-2.0301-1.02739-1.0603-1.25753-1.8493-1.02739-3.5918.09041-.6575.10684-1.0849.04931-1.389-.07397-.4603-.25479-.7562-.35342-.5918z"/><path d="m4.31507 14.5068c-.65754.2548-1.90685.4603-3.09863.5096l-1.21644.0494v4.4712 4.463h1.64384c.90411 0 1.64383-.0247 1.64383-.0493 0-.0329-.10685-.2795-.24657-.5589-.13151-.2713-.26302-.6986-.29589-.9452-.05754-.4439-.05754-.4439.13972-.3863 1.42192.4438 2.26028.3452 2.58904-.2959.06576-.1315.18082-.5589.24658-.9534.22192-1.2822.46027-1.8905.9452-2.4083.4685-.4931.62466-1.5205.36165-2.3013-.17261-.5014-.67398-1.1343-1.11781-1.4137-.46849-.2877-1.11781-.3617-1.59452-.1809z"/><path d="m10.8823 16.3151c-.0658.2794.1562 1.5781.337 1.9644.0822.1644.4849.6657.9041 1.1178.8877.9452 1.1918 1.5041 1.2575 2.2685.0493.6904-.0328 1.052-.3123 1.3808-.2959.337-.3041.3781-.0493.3781.6411 0 1.2164-1.1918 1.0356-2.1288-.1726-.9288-.3616-1.2-1.4301-2.0794-.6576-.5425-1.0603-.937-1.1836-1.1589-.189-.3535-.3452-1.0932-.3452-1.6439 0-.3452-.1315-.4109-.2137-.0986z"/><path d="m7.86558 18.863c-.07397.0658-.20548.3699-.30411.6658-.28767.8548-.21369 1.537.27946 2.5479.23835.4932.41096 1.0028.47671 1.3562l.09041.5671h.43562.44383v-.2877c0-.337-.11507-.5835-.64109-1.3972-.55891-.8466-.74795-1.3726-.75617-2.0384 0-.3123.05754-.6822.12329-.8548.20548-.4931.11507-.8301-.14795-.5589z"/></g></svg>