<svg fill="none" height="24" viewBox="0 0 24 24" width="24" xmlns="http://www.w3.org/2000/svg" xmlns:xlink="http://www.w3.org/1999/xlink"><clipPath id="a"><path d="m0 0h24v24h-24z"/></clipPath><g clip-path="url(#a)"><path d="m5.83897.66593c-.64811.32361-1.13097.88037-1.35923 1.56782l-4.339165 13.04125c-.2299274.6854-.1763629 1.4227.150136 2.0736.324054.6438.881479 1.1277 1.566479 1.3568l14.23041 4.7778c.69.2289 1.4265.1768 2.0738-.1482.6481-.3272 1.1319-.8812 1.3573-1.5704l4.3411-13.03755c.4754-1.42012-.2977-2.96105-1.7177-3.43413l-14.22901-4.776237c-.69133-.227927-1.42312-.178252-2.07412.149247z" fill="#fff"/><path d="m12.7949 13.1909c-.7729.8622-1.7366 1.5581-2.85377 1.9896l-.64211.2487v-6.04231l.63433.24593c1.11875.42708 2.08495 1.12298 2.86155 1.98148.5529-.8899.8964-1.92203.9666-3.04477.1759-2.89682-1.6383-5.55482-4.13053-6.47997l-2.05568-.68401c-.92782-.30916-1.91532.2027-2.22148 1.12775l-4.35172 13.0486c-.308945.9288.21147 1.9366 1.14041 2.2418l9.8758 3.2974c1.0068-1.0705 1.66-2.4892 1.7552-4.0715.0874-1.412-.2807-2.7433-.9786-3.8587zm-5.70836 2.6105h-.98049v-6.77457h.98049z" fill="#0099da"/><path d="m12.2253 12.4026c-.5514-.6465-1.2179-1.1897-1.9875-1.5874v3.1843c.7696-.3987 1.4398-.9484 1.9875-1.5969z" fill="#f15c21"/><path d="m21.8266 6.16372-9.0631-3.02895c1.2174 1.33266 1.9622 3.10307 1.9657 5.04195.0019 1.53281-.476 2.99888-1.3075 4.22588.8347 1.2235 1.3153 2.6885 1.3195 4.2211.0006 1.8308-.6573 3.5176-1.7527 4.8235l3.4034 1.1359c.9309.3095 1.9135-.2022 2.223-1.1301l4.3539-13.04736c.3082-.92726-.2128-1.93387-1.1422-2.24192zm-2.401 9.61608-1.2244.0033-2.5185-3.3878 2.5582-3.38689 1.2349-.00489-2.5641 3.39668z" fill="#0055a2"/></g></svg>