<svg fill="none" height="24" viewBox="0 0 24 24" width="24" xmlns="http://www.w3.org/2000/svg" xmlns:xlink="http://www.w3.org/1999/xlink"><clipPath id="a"><path d="m0 0h24v24h-24z"/></clipPath><g clip-path="url(#a)"><path clip-rule="evenodd" d="m12.4903 16.6063v1.8434h5.9812v-5.5311h-3.6787v-1.8439h3.6787v-5.53733h-5.9812v1.8451h4.1352v1.84801h-3.6862v5.53242h3.6862v1.8434zm-10.63261-4.6073c0-5.59864 4.54073-10.14432 10.14131-10.14432 5.5993 0 10.1408 4.54568 10.1408 10.14432 0 5.6006-4.5415 10.143-10.1408 10.143-5.60058 0-10.14131-4.5424-10.14131-10.143zm-1.85769 0c0-6.62948 5.36859-11.999 11.999-11.999 6.6287 0 12.001 5.36952 12.001 11.999 0 6.6294-5.3723 12.001-12.001 12.001-6.63041 0-11.999-5.3716-11.999-12.001zm11.56-4.62153v-1.84426h-5.98861v5.53399h3.66957v1.846h-3.66957v5.5332h5.98861v-1.8443h-4.1455v-1.8434h3.6858v-5.53738h-3.6858v-1.84385" fill="#cb0202" fill-rule="evenodd"/></g></svg>