<svg fill="none" height="24" viewBox="0 0 24 24" width="24" xmlns="http://www.w3.org/2000/svg"><path d="m15.5644 11.9999c0 1.9456-1.5892 3.5495-3.5792 3.5495-1.9456 0-3.505-1.5891-3.505-3.5495 0-1.9901 1.5594-3.57918 3.505-3.57918 1.99 0 3.5792 1.58908 3.5792 3.57918zm-3.5792 7.7228c-4.21787 0-7.69312-3.4752-7.69312-7.7376 0-4.2921 3.47525-7.76735 7.69312-7.76735 4.292 0 7.7376 3.47525 7.7376 7.76735-.0149 4.2624-3.4456 7.7376-7.7376 7.7376zm3.5049-16.30693c-1.2475 0-2.4059.25248-3.5049.71287-1.0248-.46039-2.22777-.71287-3.4456-.71287-4.75247 0-8.5396 3.80198-8.5396 8.58413 0 4.7228 3.80198 8.5842 8.5396 8.5842 1.20297 0 2.4059-.2822 3.4456-.7426 1.099.4604 2.2722.7426 3.5049.7426 4.7228 0 8.5099-3.8614 8.5099-8.5842 0-4.78215-3.7871-8.58413-8.5099-8.58413z" fill="#e60000"/></svg>