<svg fill="none" height="24" viewBox="0 0 24 24" width="24" xmlns="http://www.w3.org/2000/svg"><g fill="#a00"><path d="m8.13418.45067c.34659-.3927187.91147-.4360415 1.40152-.45067.37922.0270064.7629.046136 1.132.142346.1193.051763.296.097899.3016.255999-.1215.250934-.4186.315075-.638.451232-.80966.479363-1.63898.944663-2.35353 1.562433.01069-.27963-.03094-.55757-.01632-.8372.00788-.37527-.10183-.814692.17273-1.12414z"/><path d="m11.6719.850501c.6864-.383716 1.5276-.140658 2.1425.268939.1638.1024.3072.33308.1609.50918-.2025.23575-.5029.36628-.7972.44617-1.8781.53619-3.64756 1.44035-5.19199 2.63425-.00282-.30101-.00394-.60201.00056-.90302 1.06169-1.17478 2.36303-2.09806 3.68523-2.955519z"/><path d="m14.758 1.88936c.3849-.14066.8147.02138 1.1202.26613.2212.17385.4682.31395.6763.50468.1486.13841.2662.37415.1362.56376-.2082.29988-.5891.38372-.9171.4878-2.7479.90416-5.4643 2.03505-7.80599 3.76121-.01969-.29651-.02025-.59414-.05513-.88952 1.26986-1.45047 2.88352-2.54761 4.54892-3.49396.7511-.42704 1.5258-.81076 2.2966-1.2001z"/><path d="m17.085 3.77859c.337-.13728.773-.1491 1.0572.1069.2335.23631.481.45911.7173.69204.1503.17329.3174.41354.2166.65097-.1215.28807-.4382.4186-.7089.52775-2.3118.70779-4.6186 1.46847-6.796 2.5296-1.271.61777-2.49419 1.34188-3.60876 2.21175.00168-.269-.01238-.53735-.01688-.80629 1.16915-1.44991 2.70454-2.55267 4.29174-3.50296 1.5535-.92216 3.1902-1.69521 4.8477-2.40976z"/><path d="m18.8557 6.17092c.2605-.11816.5407-.26219.8355-.19242.3612.08214.6088.39272.7703.70723.198.38203.5221.73817.5075 1.19447 0 .33983-.2645.60821-.5441.76462-.5812.3207-1.2496.41241-1.8961.51143-3.7781.64928-7.429 2.12785-10.5308 4.39025.00281-.3089-.03545-.6167-.03657-.925 1.2316-1.316 2.70007-2.3884 4.23497-3.32234 2.1042-1.26986 4.357-2.27641 6.6593-3.12824z"/><path d="m15.9952 10.4653c.0365.3039.0169.6111.0439.916-1.3217 1.4184-2.919 2.5515-4.5827 3.5339-1.99003 1.1618-4.10216 2.1043-6.26267 2.9015-.23406.0945-.46305.238-.7258.2222-.41972.0107-.73817-.342-.91259-.6892-.21042-.4-.55307-.7787-.52269-1.2592.01744-.342.29651-.5947.57839-.7471.56095-.2954 1.19729-.3905 1.81618-.4861 3.79103-.642 7.45658-2.1223 10.56798-4.392z"/><path d="m12.4398 15.7176c1.2608-.6166 2.48-1.3312 3.5845-2.201-.0039.2695.0366.5435.0236.8091-.9137 1.1382-2.0693 2.0553-3.2773 2.8627-1.7881 1.1787-3.72297 2.1132-5.68206 2.9684-.34714.1772-.78993.2498-1.13989.04-.20368-.1733-.38653-.3703-.58458-.5503-.15922-.144-.31845-.2976-.41691-.4912-.09227-.1873-.05064-.4259.10352-.5677.265-.2509.62509-.3573.96773-.4551 2.18584-.6735 4.36099-1.4128 6.42139-2.4149z"/><path d="m8.40192 20.2406c2.68268-.8996 5.33718-2.0103 7.62428-3.7032.0062.2976.0669.5952.0478.8923-.7843.9171-1.7312 1.6834-2.7226 2.3653-1.2187.8327-2.5189 1.5371-3.84278 2.1847-.17836.1092-.37584.2093-.59133.1986-.27963-.0275-.55532-.1283-.77362-.3077-.25206-.2037-.54857-.3562-.76518-.6009-.15248-.1548-.16092-.431.00506-.579.27288-.2712.67066-.3246 1.01837-.4501z"/><path d="m10.7758 21.9454c1.9012-.5334 3.6881-1.4505 5.2516-2.6534-.005.2993.0017.5992-.005.8985-.9031 1.0161-2.0041 1.8314-3.1238 2.5915-.3044.1879-.5823.4428-.9418.5182-.4355.1153-.8991.0242-1.3019-.1598-.2347-.1052-.4924-.2144-.6443-.4321-.10068-.1378-.02585-.3213.0951-.4175.193-.1643.4276-.2773.6701-.3454z"/><path d="m14.7315 22.5221c.4473-.287.8991-.5745 1.2957-.9301-.0084.5058.0124 1.0117.0208 1.5169-.0197.3646-.319.6459-.647.7607-.4732.166-.9857.1423-1.4775.0973-.2728-.0433-.5694-.0444-.8062-.2042-.0822-.0411-.0681-.1373-.0709-.2127.0793-.0754.1581-.1542.2577-.2025.4923-.2459.9587-.5385 1.4274-.8254z"/></g></svg>