<svg fill="none" height="24" viewBox="0 0 24 24" width="24" xmlns="http://www.w3.org/2000/svg" xmlns:xlink="http://www.w3.org/1999/xlink"><clipPath id="a"><path d="m0 0h24v24h-24z"/></clipPath><g clip-path="url(#a)"><path clip-rule="evenodd" d="m19.8925 24 3.9816-3.9856v-15.92233l-4.0043-4.09207h-15.73388l-4.010188 4.11968v15.92232l3.952958 3.958z" fill="#fff" fill-rule="evenodd"/><path d="m19.8925 24 3.9816-3.9855v-15.92237l-4.0043-4.09212986h-15.73388l-4.010188 4.11976986v15.92233l3.952978 3.9579z" stroke="#fff" stroke-miterlimit="2.613" stroke-width=".148077"/><path clip-rule="evenodd" d="m19.8698 19.9642h-3.9026v-4.3931l3.3283-3.4744-6.8017-7.38786v1.86299l4.3269 5.06897-4.2963 4.4138v7.9454h7.3681l3.9816-3.9856v-15.92233l-4.0043-4.09207h-15.73388l-4.010188 4.11968v15.92232l3.952958 3.958h7.42731l-.0015-7.9454-4.2964-4.4138 4.3269-5.06897v-1.86299l-6.80169 7.38786 3.32736 3.4744v4.3931h-3.90363v-15.92836h15.68556zm-10.91355-8.5908c0-1.68344 1.36275-3.04713 3.04315-3.04713 1.6815 0 3.0432 1.36369 3.0432 3.04713 0 1.6824-1.3617 3.0471-3.0432 3.0471-1.6804 0-3.04315-1.3647-3.04315-3.0471z" fill="#000" fill-rule="evenodd"/><path d="m19.8698 19.9642h-3.9026v-4.3931l3.3283-3.4744-6.8017-7.38785v1.86301l4.3269 5.06894-4.2963 4.4138v7.9454h7.3681l3.9816-3.9855v-15.92237l-4.0043-4.09213h-15.73388l-4.010188 4.11977v15.92233l3.952978 3.9579h7.42729l-.0019-7.9454-4.29639-4.4138 4.32699-5.06894v-1.86301l-6.80178 7.38785 3.32734 3.4744v4.3931h-3.90362v-15.92832h15.68556zm-10.91354-8.5908c0-1.68341 1.36274-3.04707 3.04314-3.04707 1.6814 0 3.0432 1.36366 3.0432 3.04707 0 1.6824-1.3618 3.0471-3.0432 3.0471-1.6804 0-3.04314-1.3647-3.04314-3.0471z" fill="#04a" stroke="#000" stroke-miterlimit="2.613" stroke-width=".148077"/></g></svg>