<svg fill="none" height="24" viewBox="0 0 24 24" width="24" xmlns="http://www.w3.org/2000/svg"><path d="m21.3677 3.94483c.0726-3.288539 1.379-3.9298268 1.379-3.9298268s-2.8257-.0951819-3.4492.1939328c-2.8816 1.054144-3.3397 4.292704-3.342 6.380754.0023-.30696-.025-6.147558-6.30823-6.5556504-.19393-.0118977-8.39385-.0178466-8.39385-.0178466s1.31827.636529 1.38252 3.929827v9.93938c.20702-2.2178 1.20048-4.85667 3.59549-7.88464 2.04998 2.59013 3.07319 4.89234 3.4551 6.89594 1.45747-1.2172 3.47057-2.2427 6.24747-2.8543 0 0 .3153 3.7954-1.248 7.2886 1.762-.4581 3.8608-.5438 6.3319-.0036.1904-.6591.3106-1.3504.3486-2.0571z" fill="#008572"/><path d="m5.97674 21.8842c-.08329-1.9964.18322-6.0464 3.7109-8.9875-.38191-2.0036-1.40631-4.30583-3.4551-6.89597-2.39621 3.02798-3.38967 5.66687-3.59669 7.88467 0 0-.60202 4.7507 3.34089 7.9988z" fill="#f58232"/><path d="m15.9351 10.0413c-2.7769.6115-4.79 1.6383-6.24747 2.8542-3.52768 2.9411-3.79419 6.9911-3.71091 8.9876.09637.0952 1.47294.9934 1.47294.9934 1.08627-1.7596 3.35164-4.5437 7.23744-5.5467 1.5621-3.492 1.248-7.2885 1.248-7.2885z" fill="#faa634"/><path d="m14.6871 17.3299c-3.8858 1.0029-6.15113 3.787-7.23739 5.5467.00476.0036.0107.0071.01784.0107 2.29627 1.2743 4.69245 1.1053 4.69245 1.1053 4.2047-.0036 7.7526-2.8186 8.8591-6.6663-2.47-.5402-4.5699-.4521-6.332.0036z" fill="#fdb933"/></svg>